HIERARCHY
ROOT Hips
{
	OFFSET 0.000000 0.000000 0.000000
	CHANNELS 6 Xposition Yposition Zposition Xrotation Yrotation Zrotation
	JOINT LeftUpLeg_virtual
	{
		OFFSET 0.000000 0.000000 0.000000
		CHANNELS 3 Xrotation Yrotation Zrotation
		JOINT LeftUpLeg
		{
			OFFSET 13.026900 -6.336304 -1.092800
			CHANNELS 3 Xrotation Yrotation Zrotation
			JOINT LeftLeg
			{
				OFFSET 0.524474 -46.096886 9.782700
				CHANNELS 3 Xrotation Yrotation Zrotation
				JOINT LeftFoot
				{
					OFFSET -0.524474 -53.427422 -12.948200
					CHANNELS 3 Xrotation Yrotation Zrotation
					JOINT LeftToeBase
					{
						OFFSET 0.192200 -14.009700 16.364100
						CHANNELS 3 Xrotation Yrotation Zrotation
						JOINT LeftToe_End
						{
							OFFSET -1.784700 -0.561700 9.474800
							CHANNELS 3 Xrotation Yrotation Zrotation
							End Site
							{
								OFFSET 0 0 0
							}
						}
					}
				}
			}
		}
	}
	JOINT RightUpLeg_virtual
	{
		OFFSET 0.000000 0.000000 0.000000
		CHANNELS 3 Xrotation Yrotation Zrotation
		JOINT RightUpLeg
		{
			OFFSET -12.883000 -6.336304 -1.092800
			CHANNELS 3 Xrotation Yrotation Zrotation
			JOINT RightLeg
			{
				OFFSET -0.524587 -46.096825 9.782800
				CHANNELS 3 Xrotation Yrotation Zrotation
				JOINT RightFoot
				{
					OFFSET 0.524587 -53.427383 -12.948300
					CHANNELS 3 Xrotation Yrotation Zrotation
					JOINT RightToeBase
					{
						OFFSET -0.192200 -14.009700 16.364100
						CHANNELS 3 Xrotation Yrotation Zrotation
						JOINT RightToe_End
						{
							OFFSET 1.784700 -0.561700 9.474800
							CHANNELS 3 Xrotation Yrotation Zrotation
							End Site
							{
								OFFSET 0 0 0
							}
						}
					}
				}
			}
		}
	}
	JOINT Spine_virtual
	{
		OFFSET 0.000000 0.000000 0.000000
		CHANNELS 3 Xrotation Yrotation Zrotation
		JOINT Spine
		{
			OFFSET 0.072000 7.257294 -0.789700
			CHANNELS 3 Xrotation Yrotation Zrotation
			JOINT Spine1
			{
				OFFSET 0.000000 12.508769 -0.658067
				CHANNELS 3 Xrotation Yrotation Zrotation
				JOINT Spine1_split
				{
					OFFSET 0.000000 12.508769 -0.658067
					CHANNELS 3 Xrotation Yrotation Zrotation
					JOINT Spine2
					{
						OFFSET 0.000000 12.508769 -0.658067
						CHANNELS 3 Xrotation Yrotation Zrotation
						JOINT Neck_virtual
						{
							OFFSET 0.000000 0.000000 0.000000
							CHANNELS 3 Xrotation Yrotation Zrotation
							JOINT Neck
							{
								OFFSET 0.000000 14.033295 7.520400
								CHANNELS 3 Xrotation Yrotation Zrotation
								JOINT Head
								{
									OFFSET 0.000000 8.198502 5.703100
									CHANNELS 3 Xrotation Yrotation Zrotation
									JOINT HeadTop_End
									{
										OFFSET 0.000000 17.760803 13.332701
										CHANNELS 3 Xrotation Yrotation Zrotation
										End Site
										{
											OFFSET 0 0 0
										}
									}
								}
							}
						}
						JOINT LeftShoulder_virtual
						{
							OFFSET 0.000000 0.000000 0.000000
							CHANNELS 3 Xrotation Yrotation Zrotation
							JOINT LeftShoulder
							{
								OFFSET 6.292450 5.785301 -0.669000
								CHANNELS 3 Xrotation Yrotation Zrotation
								JOINT LeftShoulder_split
								{
									OFFSET 6.292450 5.785301 -0.669000
									CHANNELS 3 Xrotation Yrotation Zrotation
									JOINT LeftArm
									{
										OFFSET 13.907140 -6.093903 1.965100
										CHANNELS 3 Xrotation Yrotation Zrotation
										JOINT LeftForeArm
										{
											OFFSET 34.140198 0.000000 0.000000
											CHANNELS 3 Xrotation Yrotation Zrotation
											JOINT LeftHand
											{
												OFFSET 40.960209 0.000000 0.000000
												CHANNELS 3 Xrotation Yrotation Zrotation
												End Site
												{
													OFFSET 0 0 0
												}
											}
										}
									}
								}
							}
						}
						JOINT RightShoulder_virtual
						{
							OFFSET 0.000000 0.000000 0.000000
							CHANNELS 3 Xrotation Yrotation Zrotation
							JOINT RightShoulder
							{
								OFFSET -6.292450 5.785301 -0.669000
								CHANNELS 3 Xrotation Yrotation Zrotation
								JOINT RightShoulder_split
								{
									OFFSET -6.292450 5.785301 -0.669000
									CHANNELS 3 Xrotation Yrotation Zrotation
									JOINT RightArm
									{
										OFFSET -13.907140 -6.093903 1.965100
										CHANNELS 3 Xrotation Yrotation Zrotation
										JOINT RightForeArm
										{
											OFFSET -34.140198 0.000000 0.000000
											CHANNELS 3 Xrotation Yrotation Zrotation
											JOINT RightHand
											{
												OFFSET -40.960209 0.000000 0.000000
												CHANNELS 3 Xrotation Yrotation Zrotation
												End Site
												{
													OFFSET 0 0 0
												}
											}
										}
									}
								}
							}
						}
					}
				}
			}
		}
	}
}
MOTION
Frames: 7
Frame Time: 0.03333333
9.399580 106.121300 2.614090 0.000000 0.000000 0.000000 5.632972 -13.590582 -1.615175 -35.703567 2.693794 13.198414 48.104387 10.669290 -1.289373 -11.428804 4.924035 -11.039426 -1.707835 -1.632256 -1.658162 0.000000 0.000000 0.000000 4.889925 -10.268494 -0.806677 -25.659735 -5.945844 -15.108693 47.795400 -11.288999 -6.773177 -10.858624 3.217794 11.256457 -14.545291 -2.162429 4.103972 0.000000 0.000000 0.000000 6.684227 -8.270338 -0.213280 12.980839 2.873353 -2.466590 8.222989 6.481757 -2.549985 0.031434 -1.518122 1.139039 0.000000 0.000000 0.000000 -1.786470 6.040595 -0.775448 -5.844316 1.103182 0.004931 -7.708220 8.222935 6.092039 0.000000 0.000000 0.000000 -3.206387 6.071808 -0.896198 -2.172760 0.479400 -3.099865 0.764871 -1.770917 1.277744 -14.032940 0.923900 -55.266353 -12.858729 -32.041592 -5.086604 0.000000 0.000000 0.000000 -3.648673 5.362584 -0.913571 5.118974 -9.247259 9.544924 2.259455 -2.693981 -2.193655 23.157591 58.310554 24.691790 16.287127 29.607846 4.899313 0.000000 0.000000 0.000000 
9.382096 106.836700 2.340363 0.000000 0.000000 0.000000 6.030414 -13.820726 -2.199788 -34.812474 2.048419 13.452457 45.432639 10.573382 -0.726092 -10.150424 4.539837 -10.727483 -1.762269 -1.671140 -1.800899 0.000000 0.000000 0.000000 5.055796 -10.591249 -1.527641 -24.296120 -6.325551 -13.112692 43.501844 -8.698200 -6.207360 -10.335398 4.462633 12.431645 -12.759257 -1.477811 2.867766 0.000000 0.000000 0.000000 6.831379 -8.125584 -0.756620 13.097359 3.013298 -2.110963 7.886998 6.516917 -2.401895 -0.084605 -1.702438 1.085912 0.000000 0.000000 0.000000 -2.139925 5.987408 -0.553069 -5.955883 1.185531 -0.115341 -7.260728 7.707238 6.749540 0.000000 0.000000 0.000000 -3.575201 6.033829 -0.835521 -2.167805 1.220639 -3.511342 0.992717 -2.013097 1.479336 -14.030314 1.399074 -55.365766 -12.102002 -30.851729 -4.318319 0.000000 0.000000 0.000000 -3.987105 5.369797 -0.760558 4.665779 -7.796476 9.215374 2.132156 -2.484580 -2.692349 15.607071 54.621590 30.491450 15.291013 26.733466 6.705983 0.000000 0.000000 0.000000 
9.272867 107.473579 2.050400 0.000000 0.000000 0.000000 6.158888 -14.109424 -2.645787 -33.834575 1.748423 13.744784 43.084785 10.440046 -0.276244 -9.324624 4.301067 -10.125520 -1.775712 -1.706373 -1.902223 0.000000 0.000000 0.000000 5.029439 -10.984074 -2.116259 -22.120929 -6.118198 -11.193842 38.339293 -6.882245 -5.673969 -10.531832 4.395147 12.941168 -10.430380 -0.982901 2.106317 0.000000 0.000000 0.000000 6.671352 -8.124311 -1.177312 13.254079 3.131905 -1.751712 7.509261 6.512025 -2.307252 -0.025234 -1.969111 1.044640 0.000000 0.000000 0.000000 -2.521698 5.912887 -0.411619 -6.025396 1.262341 -0.227085 -6.763540 7.002989 7.502930 0.000000 0.000000 0.000000 -3.936701 5.955145 -0.839165 -2.147502 1.923644 -3.869599 1.121475 -2.135924 1.532232 -13.942359 2.099631 -55.530684 -11.365974 -29.654229 -3.609248 0.000000 0.000000 0.000000 -4.335708 5.345616 -0.674054 4.128903 -6.494293 8.725421 1.796454 -2.193126 -2.780625 9.758091 49.881025 36.050432 15.320939 24.555008 6.892401 0.000000 0.000000 0.000000 
9.144744 107.961922 1.771690 0.000000 0.000000 0.000000 6.034050 -14.376269 -2.933911 -32.858917 1.856749 13.960702 41.223818 10.368515 -0.027745 -9.013908 4.364757 -9.306298 -1.721116 -1.706940 -1.970483 0.000000 0.000000 0.000000 4.825858 -11.267340 -2.535454 -19.695262 -5.417975 -9.611393 33.198056 -5.688630 -5.266850 -11.067855 3.365995 13.022580 -8.132682 -0.697102 1.860039 0.000000 0.000000 0.000000 6.240993 -8.252266 -1.422689 13.407664 3.172075 -1.446124 7.111464 6.463854 -2.225054 0.159029 -2.157296 1.043323 0.000000 0.000000 0.000000 -2.935266 5.819130 -0.312177 -6.004565 1.290939 -0.377270 -6.276108 6.130266 8.338798 0.000000 0.000000 0.000000 -4.303794 5.847297 -0.845494 -2.119290 2.554328 -4.069736 1.141429 -2.268988 1.562655 -13.753623 2.772510 -55.747779 -10.653735 -28.576926 -2.953187 0.000000 0.000000 0.000000 -4.689644 5.296035 -0.597523 3.556670 -5.341070 8.227881 1.290169 -2.103304 -2.551792 5.799144 44.711176 41.217757 15.928419 22.965456 5.933805 0.000000 0.000000 0.000000 
8.995787 108.362427 1.583027 0.000000 0.000000 0.000000 5.735724 -14.400761 -3.047704 -31.864321 2.320097 14.083568 39.756325 10.344865 -0.000662 -9.022144 4.664643 -8.575080 -1.768772 -1.668167 -1.986878 0.000000 0.000000 0.000000 4.505904 -11.382563 -2.736758 -17.459545 -4.467415 -8.590360 28.940236 -4.823568 -5.010402 -11.589520 1.936330 12.976904 -6.205154 -0.551758 1.985729 0.000000 0.000000 0.000000 5.621007 -8.551611 -1.523333 13.511359 3.110075 -1.240805 6.720553 6.386342 -2.119906 0.354590 -2.264404 1.074953 0.000000 0.000000 0.000000 -3.368922 5.712953 -0.212735 -5.859487 1.276802 -0.631902 -5.832483 5.114443 9.219631 0.000000 0.000000 0.000000 -4.678883 5.725707 -0.802609 -2.081794 3.093863 -4.077935 1.163526 -2.381570 1.570820 -13.572849 3.197119 -56.038707 -9.985449 -27.677124 -2.326156 0.000000 0.000000 0.000000 -5.032827 5.226486 -0.491928 2.973037 -4.343149 7.828479 0.853061 -2.099588 -2.347238 3.614603 39.782498 45.774504 16.646513 21.969884 4.399829 0.000000 0.000000 0.000000 
8.772713 108.711929 1.357414 0.000000 0.000000 0.000000 5.328297 -14.219790 -2.996207 -30.807736 2.965339 14.052218 38.620881 10.259707 -0.149882 -9.062716 5.035895 -8.111744 -2.047580 -1.607001 -1.955498 0.000000 0.000000 0.000000 4.143649 -11.191946 -2.771481 -15.779030 -3.615657 -8.192965 25.829950 -4.038844 -4.881074 -11.800058 0.650646 13.039006 -4.837738 -0.481327 2.277921 0.000000 0.000000 0.000000 4.994608 -8.857266 -1.512731 13.509971 2.972206 -1.138746 6.347927 6.298481 -1.975899 0.417243 -2.171772 1.063748 0.000000 0.000000 0.000000 -3.798588 5.601565 -0.088954 -5.575645 1.218950 -1.034563 -5.396417 4.040931 10.084949 0.000000 0.000000 0.000000 -5.066186 5.605319 -0.691964 -2.030713 3.529612 -3.929405 1.155418 -2.521858 1.582082 -13.427620 3.315451 -56.402988 -9.405292 -27.026355 -1.755476 0.000000 0.000000 0.000000 -5.352946 5.148432 -0.338537 2.405570 -3.494166 7.496751 0.536863 -2.401761 -2.263634 2.729685 35.440660 49.835987 17.070005 21.481391 2.737933 0.000000 0.000000 0.000000 
8.528807 109.082336 1.269386 0.000000 0.000000 0.000000 4.933533 -13.947893 -2.820750 -29.703468 3.669127 13.868208 37.590732 10.013458 -0.368255 -8.968409 5.316740 -7.906817 -2.374158 -1.556940 -1.896115 0.000000 0.000000 0.000000 3.740766 -10.802002 -2.672068 -14.651847 -3.273162 -8.357865 23.932445 -3.362292 -4.744862 -11.400573 -0.212456 13.352240 -4.268417 -0.426975 2.544414 0.000000 0.000000 0.000000 4.449285 -9.085787 -1.397009 13.388130 2.787684 -1.115287 6.013836 6.219166 -1.806528 0.401709 -1.955860 0.980868 0.000000 0.000000 0.000000 -4.220185 5.496249 0.047860 -5.150492 1.159870 -1.623499 -4.877018 2.967256 10.870897 0.000000 0.000000 0.000000 -5.462933 5.498685 -0.540187 -1.968011 3.846299 -3.722036 1.212207 -2.662672 1.550650 -13.329799 3.128518 -56.865744 -8.947468 -26.577711 -1.278457 0.000000 0.000000 0.000000 -5.637338 5.080259 -0.152040 1.873074 -2.787649 7.184557 0.300237 -2.972736 -2.417053 2.736048 31.793663 53.324899 16.872830 21.539690 1.302533 0.000000 0.000000 0.000000 
